<?xml version="1.0" encoding="utf-8"?>
<svg width="500px" height="118px" viewBox="0 0 500 118" version="1.1" xmlns:xlink="http://www.w3.org/1999/xlink" xmlns="http://www.w3.org/2000/svg">
  <g id="Group-4">
    <g id="Group-3">
      <path d="M158.988 17.4609L158.998 17.663C159.019 18.1307 158.842 18.6802 158.311 18.7441C153.442 19.3283 149.79 23.0412 149.79 28.1359L149.861 95.8379C149.863 97.7229 150.27 99.6283 151.675 101.747L151.674 28.6563C151.674 27.4846 152.746 25.732 153.845 24.9531L153.845 104.378C155.073 105.511 158.437 107.597 162.222 107.597L165.033 107.597C165.831 107.597 166.485 108.254 166.485 109.049L166.485 109.464C166.485 110.26 165.83 110.915 165.033 110.915L113.174 110.915C112.378 110.915 111.723 110.262 111.723 109.464L111.723 109.049C111.723 108.251 112.376 107.597 113.174 107.597L116.148 107.597C125.678 107.474 128.39 99.1313 128.391 96.0317L128.402 57.9304C128.405 47.0632 119.957 42.6756 117.545 41.6154L117.619 40.9399C122.865 39.1428 128.518 41.2689 131.33 45.0197C129.786 31.8285 138.205 18.2228 155.004 17.4512L152.411 17.4512C141.26 16.4565 129.05 23.7756 127.176 37.5187C124.057 34.3997 118.863 35.1067 116.733 39.1881L92.9934 84.6465C90.7875 88.8692 91.9979 92.6209 93.2697 94.7412L102.98 110.92L85.5595 110.891C79.9541 110.891 73.721 108.138 69.6865 101.527L41.1984 54.8501C41.6638 50.545 43.536 48.5605 45.8753 46.9831L77.6957 99.3114C80.4769 103.885 86.2883 105.22 89.9705 104.082L50.6904 39.2948C47.9657 34.7989 43.1441 34.8118 40.2255 37.6577C38.4753 23.2706 26.6384 17.3881 16.7804 17.3162L11.4037 17.452C28.2327 17.0092 38.0479 32.0798 34.5168 45.2629C37.2196 43.4287 41.5434 41.735 46.651 42.4542L46.6518 43.0941C44.757 43.7898 37.9921 46.6568 37.9921 56.2134L38.0042 96.4187C38.005 99.3155 40.7095 107.166 49.9324 107.597L53.5961 107.597C54.3944 107.597 55.0481 108.252 55.0481 109.049L55.0481 109.464C55.0481 110.26 54.3928 110.915 53.5961 110.915L1.73685 110.915C0.940948 110.915 0.285645 110.262 0.285645 109.464L0.285645 109.049C0.285645 108.251 0.938545 107.597 1.73685 107.597L4.75005 107.597C9.26455 107.597 12.0013 105.082 12.9249 104.158L12.9249 25.34C13.9753 25.7319 15.0953 27.4845 15.0953 28.6562L15.0953 101.072C15.0953 101.227 15.0751 101.379 15.0387 101.528C16.1966 99.5361 16.6039 98.5301 16.6039 97.6285L16.6039 28.9349C16.6039 25.243 13.3927 20.1663 8.08394 18.744C7.65734 18.6931 7.47794 18.3634 7.42054 17.9837C7.39154 17.7897 7.39394 17.4205 7.39874 17.2249C6.38144 16.4549 5.34795 14.6303 5.33744 13.7932L45.9573 13.7932C47.6372 13.7932 48.3677 15.5555 46.792 16.9162C46.5464 17.1279 46.5819 17.7526 46.7508 18.0297L80.1832 73.2734C81.6086 75.6288 83.3693 76.2235 84.9531 76.2001C86.7566 76.1726 88.6078 75.2321 89.6356 73.2653L118.684 17.6661C118.811 17.4246 118.929 17.0326 118.516 16.9219C117.076 16.5373 117.141 13.7932 119.034 13.7932L161.411 13.7932C161.159 15.1539 159.825 17.0617 158.988 17.4609L158.988 17.4609ZM1.73685 113.084L53.5957 113.084C54.394 113.084 55.0477 113.737 55.0477 114.536L55.0477 116.047C55.0477 116.846 54.394 117.499 53.5957 117.499L1.73685 117.499C0.938545 117.499 0.285645 116.846 0.285645 116.047L0.285645 114.536C0.285645 113.737 0.938545 113.084 1.73685 113.084L1.73685 113.084ZM113.174 113.084L165.033 113.084C165.831 113.084 166.484 113.737 166.484 114.536L166.484 116.047C166.484 116.846 165.831 117.499 165.033 117.499L113.174 117.499C112.375 117.499 111.722 116.846 111.722 116.047L111.722 114.536C111.722 113.737 112.375 113.084 113.174 113.084L113.174 113.084ZM139.955 94.3647C139.955 97.7593 142.418 100.976 146.68 100.784L146.442 31.1506C142.687 34.4215 139.708 38.9012 139.71 44.8152L139.955 94.3647ZM19.6536 100.886C24.467 100.886 26.5235 96.1206 26.5235 94.3526C26.5235 85.3753 26.5235 53.9816 26.5235 45.0035C26.6285 38.4794 24 34.1662 19.5889 31.296C19.5889 50.6645 19.6536 81.5162 19.6536 100.886L19.6536 100.886ZM6.11572 10.5166L44.9765 10.5166C46.6313 10.5166 46.6289 12.5108 44.9765 12.5108L5.81352 12.5108C4.73962 12.5108 5.12912 10.5166 6.11572 10.5166L6.11572 10.5166ZM119.316 10.5166L160.597 10.5166C161.627 10.5166 161.948 12.5108 160.78 12.5108L119.316 12.5108C117.675 12.5108 117.66 10.5166 119.316 10.5166L119.316 10.5166ZM165.922 1.2832C166.029 0.916382 165.878 0 165.042 0L114.452 0C113.626 0 113.568 0.916382 113.715 1.2832L117.527 7.83563C117.856 8.39313 118.669 8.88202 119.657 8.97333L120.389 8.97333L160.357 8.97333C161.349 8.97333 162.187 8.4093 162.487 7.83563L165.922 1.2832ZM4.00589 7.82019L0.0650864 1.2832C-0.0828171 0.916382 -0.0335159 0 0.801987 0L49.52 0C50.3555 0 50.4048 0.916382 50.257 1.2832L46.8479 7.83563C46.519 8.39313 45.7053 8.88202 44.7179 8.97333L43.6077 8.97333L6.21589 8.95794C4.98929 8.95715 4.27819 8.41577 4.00589 7.82025L4.00589 7.82019Z" id="path67" fill="#CD9A30" fill-rule="evenodd" stroke="none" />
    </g>
    <g id="Group-2" transform="translate(185 0.5536499)">
      <g id="SINCE-1985" transform="translate(137 76.0957)">
        <path d="M131.909 8.09091Q130.477 7.55682 129.045 7.54545Q126.682 7.51137 124.937 8.56818Q123.193 9.625 122.233 11.4034Q121.273 13.1818 121.273 15.3182Q121.273 17.5682 122.267 19.3125Q123.261 21.0568 124.926 22.0511Q126.591 23.0455 128.591 23.0455Q130.398 23.0455 131.881 22.2159Q133.364 21.3864 134.318 19.9545L134.5 19.9545Q134.5 24.25 132.938 26.6023Q131.375 28.9545 128.682 28.9545Q126.841 28.9545 125.722 27.9148Q124.602 26.875 124.227 25.2727L121.455 25.2727Q121.864 28.0341 123.807 29.7443Q125.75 31.4545 128.682 31.4545Q132.602 31.4545 134.869 28.1023Q137.136 24.75 137.136 18.5455Q137.136 15.3409 136.42 13.2159Q135.705 11.0909 134.523 9.85795Q133.341 8.625 131.909 8.09091ZM15.5455 13.6818Q15.3409 11.9545 13.8864 11Q12.4318 10.0455 10.3182 10.0455Q8 10.0455 6.59091 11.142Q5.18182 12.2386 5.18182 13.9091Q5.18182 15.1591 5.94886 15.9261Q6.71591 16.6932 7.76705 17.1193Q8.81818 17.5455 9.68182 17.7727L12.0455 18.4091Q12.9545 18.6477 14.0739 19.0682Q15.1932 19.4886 16.2216 20.2102Q17.25 20.9318 17.9205 22.0568Q18.5909 23.1818 18.5909 24.8182Q18.5909 26.7045 17.608 28.2273Q16.625 29.75 14.7443 30.6477Q12.8636 31.5455 10.1818 31.5455Q6.43182 31.5455 4.22727 29.7727Q2.02273 28 1.81818 25.1364L4.72727 25.1364Q4.84091 26.4545 5.61932 27.3125Q6.39773 28.1705 7.59659 28.5852Q8.79546 29 10.1818 29Q11.7955 29 13.0795 28.4716Q14.3636 27.9432 15.1136 26.9943Q15.8636 26.0455 15.8636 24.7727Q15.8636 23.6136 15.2159 22.8864Q14.5682 22.1591 13.5114 21.7045Q12.4545 21.25 11.2273 20.9091L8.36364 20.0909Q5.63636 19.3068 4.04545 17.8523Q2.45455 16.3977 2.45455 14.0455Q2.45455 12.0909 3.51705 10.6307Q4.57955 9.17046 6.38068 8.35795Q8.18182 7.54546 10.4091 7.54545Q12.6591 7.54546 14.4091 8.34659Q16.1591 9.14773 17.1875 10.5341Q18.2159 11.9205 18.2727 13.6818L15.5455 13.6818ZM74.5 15.1364L71.6818 15.1364Q71.3409 13.5227 70.375 12.4205Q69.4091 11.3182 68.0455 10.75Q66.6818 10.1818 65.1364 10.1818Q63.0227 10.1818 61.3125 11.25Q59.6023 12.3182 58.5966 14.3977Q57.5909 16.4773 57.5909 19.5Q57.5909 22.5227 58.5966 24.6023Q59.6023 26.6818 61.3125 27.75Q63.0227 28.8182 65.1364 28.8182Q66.6818 28.8182 68.0455 28.25Q69.4091 27.6818 70.375 26.5795Q71.3409 25.4773 71.6818 23.8636L74.5 23.8636Q74.0682 26.25 72.7386 27.9489Q71.4091 29.6477 69.4432 30.5511Q67.4773 31.4545 65.1364 31.4545Q62.1591 31.4545 59.8409 30Q57.5227 28.5455 56.1932 25.8636Q54.8636 23.1818 54.8636 19.5Q54.8636 15.8182 56.1932 13.1364Q57.5227 10.4545 59.8409 9Q62.1591 7.54546 65.1364 7.54545Q67.4773 7.54546 69.4432 8.44886Q71.4091 9.35227 72.7386 11.0511Q74.0682 12.75 74.5 15.1364ZM149.045 31.4545Q146.705 31.4545 144.915 30.6193Q143.125 29.7841 142.125 28.3125Q141.125 26.8409 141.136 24.9545Q141.125 23.4773 141.716 22.2216Q142.307 20.9659 143.335 20.1193Q144.364 19.2727 145.636 19.0455L145.636 18.9091Q143.966 18.4773 142.977 17.0284Q141.989 15.5795 142 13.7273Q141.989 11.9545 142.898 10.5568Q143.807 9.15909 145.403 8.35227Q147 7.54546 149.045 7.54545Q151.068 7.54546 152.659 8.35227Q154.25 9.15909 155.165 10.5568Q156.08 11.9545 156.091 13.7273Q156.08 15.5795 155.085 17.0284Q154.091 18.4773 152.455 18.9091L152.455 19.0455Q153.716 19.2727 154.727 20.1193Q155.739 20.9659 156.341 22.2216Q156.943 23.4773 156.955 24.9545Q156.943 26.8409 155.937 28.3125Q154.932 29.7841 153.153 30.6193Q151.375 31.4545 149.045 31.4545ZM26.0455 7.86364L26.0455 31.1364L23.2273 31.1364L23.2273 7.86364L26.0455 7.86364ZM50.1364 31.1364L50.1364 7.86364L47.3636 7.86364L47.3636 26.1818L47.1364 26.1818L34.4091 7.86364L31.6818 7.86364L31.6818 31.1364L34.5 31.1364L34.5 12.8636L34.7273 12.8636L47.4091 31.1364L50.1364 31.1364ZM93.0909 7.86364L79.0455 7.86364L79.0455 31.1364L93.2727 31.1364L93.2727 28.6364L81.8636 28.6364L81.8636 20.7273L92.3636 20.7273L92.3636 18.2273L81.8636 18.2273L81.8636 10.3636L93.0909 10.3636L93.0909 7.86364ZM114.955 31.1364L112.136 31.1364L112.136 10.8182L112 10.8182L106.318 14.5909L106.318 11.7273L112.136 7.86364L114.955 7.86364L114.955 31.1364ZM164.989 30.6591Q166.591 31.4545 168.591 31.4545Q170.807 31.4545 172.545 30.4489Q174.284 29.4432 175.278 27.6989Q176.273 25.9545 176.273 23.7273Q176.273 21.4659 175.313 19.7045Q174.352 17.9432 172.676 16.9261Q171 15.9091 168.864 15.9091Q167.693 15.9091 166.614 16.2841Q165.534 16.6591 164.818 17.2273L164.682 17.2273L165.5 10.3636L175.227 10.3636L175.227 7.86364L163.136 7.86364L161.727 19.3182L164.364 19.6364Q165.091 19.1136 166.216 18.7784Q167.341 18.4432 168.409 18.4545Q169.898 18.4659 171.057 19.1591Q172.216 19.8523 172.881 21.0511Q173.545 22.25 173.545 23.7727Q173.545 25.2614 172.903 26.4375Q172.261 27.6136 171.142 28.2841Q170.023 28.9545 168.591 28.9545Q166.807 28.9545 165.528 27.9261Q164.25 26.8977 164.091 25.3182L161.364 25.3182Q161.455 27.0909 162.42 28.4773Q163.386 29.8636 164.989 30.6591ZM149.045 17.9091Q150.92 17.9091 152.136 16.8125Q153.352 15.7159 153.364 13.9091Q153.352 12.1364 152.165 11.0682Q150.977 10 149.045 10Q147.091 10 145.903 11.0682Q144.716 12.1364 144.727 13.9091Q144.716 15.7159 145.926 16.8125Q147.136 17.9091 149.045 17.9091ZM126.472 10.7557Q127.614 10.0455 129.045 10.0455Q130.5 10.0455 131.642 10.7841Q132.784 11.5227 133.438 12.7159Q134.091 13.9091 134.091 15.2727Q134.091 16.6591 133.403 17.8636Q132.716 19.0682 131.551 19.8068Q130.386 20.5455 128.955 20.5455Q127.523 20.5455 126.403 19.8466Q125.284 19.1477 124.642 17.9602Q124 16.7727 124 15.3182Q124 13.8636 124.665 12.6648Q125.33 11.4659 126.472 10.7557ZM149.045 28.9545Q151.409 28.9545 152.79 27.8239Q154.17 26.6932 154.182 24.8182Q154.17 23.5 153.5 22.4886Q152.83 21.4773 151.676 20.8977Q150.523 20.3182 149.045 20.3182Q147.557 20.3182 146.392 20.8977Q145.227 21.4773 144.562 22.4886Q143.898 23.5 143.909 24.8182Q143.898 26.6932 145.273 27.8239Q146.648 28.9545 149.045 28.9545Z" />
      </g>
      <g id="MEENAKSHI" fill="#CD9A30">
        <path d="M228.272 72.288Q231.6 76 239.088 76Q245.936 76 248.912 71.808Q251.888 67.616 251.888 59.488Q251.888 55.84 250.992 53.184Q250.096 50.528 248.624 48.576Q247.152 46.624 244.912 44.448L238.512 38.304Q235.44 35.424 235.44 32.736Q235.44 31.52 236.08 30.816Q236.72 30.112 238 30.112Q239.088 30.112 239.696 30.752Q240.304 31.392 240.304 32.48L240.368 36.256L251.568 36.256Q251.568 27.872 248.304 23.936Q245.04 20 237.616 20Q231.408 20 228.176 23.68Q224.944 27.36 224.944 34.4Q224.944 40.928 230.448 46.304L235.184 51.04Q237.744 53.536 238.736 54.72Q239.728 55.904 240.368 57.664Q241.008 59.424 241.008 62.112Q241.008 64.16 240.432 65.024Q239.856 65.888 238.384 65.888Q235.76 65.888 235.76 61.792L235.76 54.944L224.944 54.944L224.944 60.32Q224.944 68.576 228.272 72.288ZM2.432 75.488L2.432 20.512L19.2 20.512L23.808 54.048L28.416 20.512L45.312 20.512L45.312 75.488L35.264 75.488L35.264 35.872L28.928 75.488L19.072 75.488L12.352 35.872L12.352 75.488L2.432 75.488ZM55.176 75.488L55.176 20.512L77.192 20.512L77.192 31.136L66.376 31.136L66.376 41.824L76.744 41.824L76.744 52.192L66.376 52.192L66.376 64.8L77.896 64.8L77.896 75.488L55.176 75.488ZM86.544 20.512L86.544 75.488L109.264 75.488L109.264 64.8L97.744 64.8L97.744 52.192L108.112 52.192L108.112 41.824L97.744 41.824L97.744 31.136L108.56 31.136L108.56 20.512L86.544 20.512ZM117.912 75.488L117.912 20.512L129.24 20.512L134.296 46.816L134.296 20.512L144.92 20.512L144.92 75.488L134.168 75.488L128.664 47.968L128.664 75.488L117.912 75.488ZM158.624 20.512L153.312 75.488L164 75.488L164.64 66.592L171.296 66.592L172.064 75.488L182.496 75.488L177.248 20.512L158.624 20.512ZM190.824 75.488L190.824 20.512L201.704 20.512L201.704 42.528L206.824 20.512L217.896 20.512L211.752 45.664L219.176 75.488L207.784 75.488L201.768 48.864L201.768 75.488L190.824 75.488ZM260.536 75.488L260.536 20.512L271.48 20.512L271.48 40.16L276.664 40.16L276.664 20.512L287.608 20.512L287.608 75.488L276.664 75.488L276.664 50.528L271.48 50.528L271.48 75.488L260.536 75.488ZM296.96 20.512L296.96 75.488L307.584 75.488L307.584 20.512L296.96 20.512ZM170.464 57.824L165.472 57.824L167.52 29.856L168.032 29.856L170.464 57.824Z" />
      </g>
    </g>
  </g>
</svg>